<svg width="18" height="18" viewBox="0 0 18 18" fill="none" xmlns="http://www.w3.org/2000/svg">
<path fill-rule="evenodd" clip-rule="evenodd" d="M4 7C4 9.20914 2.20914 11 0 11C2.20914 11 4 12.7909 4 15C4 12.7909 5.79086 11 8 11C5.79086 11 4 9.20914 4 7Z" fill="#343434"/>
<path fill-rule="evenodd" clip-rule="evenodd" d="M12 0C12 3.31371 9.31371 6 6 6C9.31371 6 12 8.68629 12 12C12 8.68629 14.6863 6 18 6C14.6863 6 12 3.31371 12 0Z" fill="#343434"/>
<path fill-rule="evenodd" clip-rule="evenodd" d="M14 14C14 15.1046 13.1046 16 12 16C13.1046 16 14 16.8954 14 18C14 16.8954 14.8954 16 16 16C14.8954 16 14 15.1046 14 14Z" fill="#343434"/>
</svg>
