<svg width="919" height="587" viewBox="0 0 919 587" fill="none" xmlns="http://www.w3.org/2000/svg">
<rect x="2.97852" y="137" width="312.239" height="75.2518" transform="rotate(2.26815 2.97852 137)" fill="#C792EA"/>
<g opacity="0.4">
<circle cx="292.498" cy="292.498" r="292.498" transform="matrix(-1 0 0 1 758 1)" stroke="#212121" stroke-width="2" stroke-linecap="round" stroke-linejoin="round" stroke-dasharray="15 15"/>
<ellipse cx="227.131" cy="292.498" rx="227.131" ry="292.498" transform="matrix(-1 0 0 1 692.645 1)" stroke="#212121" stroke-width="2" stroke-linecap="round" stroke-linejoin="round" stroke-dasharray="15 15"/>
<ellipse cx="227.131" cy="292.498" rx="227.131" ry="292.498" transform="matrix(4.37114e-08 1 1 -4.37114e-08 173 66.3579)" stroke="#212121" stroke-width="2" stroke-linecap="round" stroke-linejoin="round" stroke-dasharray="15 15"/>
<ellipse cx="108.808" cy="292.498" rx="108.808" ry="292.498" transform="matrix(-1 0 0 1 574.324 1)" stroke="#212121" stroke-width="2" stroke-linecap="round" stroke-linejoin="round" stroke-dasharray="15 15"/>
<ellipse cx="108.808" cy="292.498" rx="108.808" ry="292.498" transform="matrix(4.37114e-08 1 1 -4.37114e-08 173 184.677)" stroke="#212121" stroke-width="2" stroke-linecap="round" stroke-linejoin="round" stroke-dasharray="15 15"/>
<ellipse cx="0.41373" cy="292.498" rx="0.41373" ry="292.498" transform="matrix(4.37114e-08 1 1 -4.37114e-08 173 293.077)" stroke="#212121" stroke-width="2" stroke-linecap="round" stroke-linejoin="round" stroke-dasharray="15 15"/>
<ellipse cx="0.41373" cy="292.498" rx="0.41373" ry="292.498" transform="matrix(1 -8.74228e-08 -8.74228e-08 -1 465.076 585.999)" stroke="#212121" stroke-width="2" stroke-linecap="round" stroke-linejoin="round" stroke-dasharray="15 15"/>
</g>
<rect x="206" y="252.591" width="637.525" height="138.088" transform="rotate(-3.65043 206 252.591)" fill="#F0563D"/>
<path d="M27.3037 156.453L28.2314 169.71L34.2373 156.453H42.6357L36.459 192H30.3066L32.1865 181.209L35.2139 165.389L28.2559 180.281H24.9111L23.4219 165.267L20.834 181.746L19.0518 192H12.8994L19.0762 156.453H27.3037ZM61.3955 192C61.2653 191.577 61.1839 191.17 61.1514 190.779C61.1351 190.372 61.1351 189.957 61.1514 189.534C60.7933 189.86 60.4271 190.169 60.0527 190.462C59.6784 190.739 59.2959 190.991 58.9053 191.219C58.1566 191.642 57.359 191.959 56.5127 192.171C55.6663 192.399 54.7712 192.505 53.8271 192.488C52.7204 192.472 51.6624 192.285 50.6533 191.927C49.6605 191.552 48.7979 191.032 48.0654 190.364C47.3167 189.713 46.7389 188.916 46.332 187.972C45.9251 187.028 45.7461 185.97 45.7949 184.798C45.8438 183.626 46.0635 182.592 46.4541 181.697C46.861 180.802 47.39 180.021 48.041 179.354C48.6921 178.686 49.4408 178.133 50.2871 177.693C51.1335 177.238 52.0368 176.871 52.9971 176.595C53.9574 176.318 54.9421 176.123 55.9512 176.009C56.9766 175.895 57.9857 175.838 58.9785 175.838L62.7871 175.887L63.1045 174.251C63.2021 173.616 63.1777 173.047 63.0312 172.542C62.901 172.037 62.6732 171.606 62.3477 171.248C62.0059 170.906 61.5827 170.646 61.0781 170.467C60.5736 170.271 60.0039 170.166 59.3691 170.149C58.7832 170.133 58.238 170.198 57.7334 170.345C57.2451 170.475 56.8138 170.687 56.4395 170.979C56.0814 171.24 55.7803 171.582 55.5361 172.005C55.3083 172.412 55.1374 172.884 55.0234 173.421L48.4072 173.47C48.5049 172.005 48.9199 170.743 49.6523 169.686C50.3848 168.611 51.3044 167.724 52.4111 167.024C53.5179 166.341 54.7386 165.844 56.0732 165.535C57.4242 165.21 58.7588 165.055 60.0771 165.071C61.4606 165.104 62.7708 165.324 64.0078 165.73C65.2448 166.137 66.319 166.723 67.2305 167.488C68.1257 168.27 68.8011 169.23 69.2568 170.369C69.7288 171.508 69.8916 172.835 69.7451 174.349L67.9141 185.701C67.7676 186.661 67.6536 187.646 67.5723 188.655C67.5072 189.648 67.6455 190.617 67.9873 191.561L67.9629 192H61.3955ZM55.5605 187.264C56.2279 187.28 56.8789 187.207 57.5137 187.044C58.1484 186.881 58.7425 186.637 59.2959 186.312C59.6865 186.084 60.0609 185.815 60.4189 185.506C60.7933 185.197 61.1351 184.855 61.4443 184.48L62.2744 179.915L59.2715 179.891C58.6204 179.891 57.9613 179.948 57.2939 180.062C56.6266 180.175 56 180.354 55.4141 180.599C55.0397 180.794 54.6735 181.014 54.3154 181.258C53.9574 181.486 53.6481 181.771 53.3877 182.112C53.1761 182.389 52.9971 182.706 52.8506 183.064C52.7041 183.423 52.5983 183.821 52.5332 184.261C52.4681 184.765 52.5007 185.205 52.6309 185.579C52.7611 185.953 52.9645 186.263 53.2412 186.507C53.5179 186.751 53.8516 186.938 54.2422 187.068C54.6491 187.199 55.0885 187.264 55.5605 187.264ZM103.861 165.584L99.2715 192H92.6309L96.2686 171.102H89.335L88.3828 176.839C88.2038 178.076 87.9759 179.313 87.6992 180.55C87.4225 181.787 87.0726 182.975 86.6494 184.114C86.2262 185.254 85.7135 186.312 85.1113 187.288C84.5091 188.248 83.7848 189.087 82.9385 189.803C82.0758 190.519 81.0667 191.072 79.9111 191.463C78.7718 191.854 77.4616 192.033 75.9805 192H74.6621L75.2236 186.434L75.9316 186.458C76.7617 186.474 77.4697 186.336 78.0557 186.043C78.6579 185.734 79.1624 185.327 79.5693 184.822C79.96 184.318 80.2773 183.74 80.5215 183.089C80.7819 182.422 80.9854 181.73 81.1318 181.014C81.2783 180.298 81.3923 179.581 81.4736 178.865C81.5713 178.133 81.6689 177.457 81.7666 176.839L83.6465 165.584H103.861ZM121.571 192.488C119.765 192.472 118.129 192.13 116.664 191.463C115.215 190.796 113.995 189.892 113.002 188.753C111.993 187.63 111.252 186.303 110.78 184.773C110.308 183.243 110.154 181.583 110.316 179.793L110.414 178.792C110.577 177.327 110.919 175.911 111.439 174.544C111.977 173.177 112.66 171.924 113.49 170.784C114.076 170.035 114.719 169.336 115.419 168.685C116.119 168.017 116.868 167.439 117.665 166.951C118.674 166.349 119.773 165.885 120.961 165.56C122.149 165.218 123.402 165.063 124.721 165.096C126.56 165.145 128.147 165.527 129.481 166.243C130.816 166.959 131.898 167.911 132.729 169.1C133.542 170.304 134.096 171.679 134.389 173.226C134.698 174.772 134.747 176.399 134.535 178.108L134.096 180.989H116.835C116.802 181.836 116.908 182.625 117.152 183.357C117.396 184.074 117.755 184.7 118.227 185.237C118.682 185.774 119.252 186.206 119.936 186.531C120.619 186.84 121.4 187.003 122.279 187.02C123.663 187.068 124.965 186.832 126.186 186.312C127.423 185.774 128.513 185.018 129.457 184.041L132.46 187.728C131.288 189.355 129.701 190.56 127.699 191.341C125.714 192.122 123.671 192.505 121.571 192.488ZM124.232 170.564C123.354 170.532 122.564 170.678 121.864 171.004C121.164 171.329 120.546 171.769 120.009 172.322C119.455 172.876 118.975 173.502 118.568 174.202C118.161 174.902 117.803 175.61 117.494 176.326H128.261L128.383 175.716C128.497 175 128.48 174.332 128.334 173.714C128.188 173.095 127.935 172.558 127.577 172.103C127.203 171.647 126.731 171.289 126.161 171.028C125.608 170.752 124.965 170.597 124.232 170.564ZM162.963 192H156.322L158.104 181.746H148.583L146.801 192H140.16L144.75 165.584H151.391L149.535 176.277H159.057L160.912 165.584H167.553L162.963 192ZM182.064 174.471L188.144 174.495C189.446 174.528 190.699 174.723 191.903 175.081C193.124 175.439 194.19 175.968 195.102 176.668C196.013 177.368 196.721 178.255 197.226 179.329C197.746 180.387 197.966 181.648 197.885 183.113C197.787 184.692 197.364 186.043 196.615 187.166C195.883 188.289 194.947 189.209 193.808 189.925C192.668 190.657 191.399 191.194 189.999 191.536C188.616 191.862 187.224 192.016 185.824 192H172.396L176.986 165.584H183.603L182.064 174.471ZM181.137 179.915L179.965 186.58L186.093 186.604C186.662 186.588 187.232 186.523 187.802 186.409C188.371 186.279 188.9 186.076 189.389 185.799C189.861 185.538 190.268 185.188 190.609 184.749C190.951 184.31 191.171 183.772 191.269 183.138C191.366 182.568 191.342 182.088 191.195 181.697C191.049 181.29 190.821 180.957 190.512 180.696C190.186 180.452 189.796 180.273 189.34 180.159C188.884 180.029 188.404 179.956 187.899 179.939L181.137 179.915ZM216.498 182.112H212.47L210.761 192H204.12L208.71 165.584H215.351L213.568 175.691H216.742L225.409 165.584L234.125 165.608L222.26 178.597L229.901 192H221.552L216.498 182.112ZM252.47 192C252.34 191.577 252.258 191.17 252.226 190.779C252.209 190.372 252.209 189.957 252.226 189.534C251.868 189.86 251.501 190.169 251.127 190.462C250.753 190.739 250.37 190.991 249.979 191.219C249.231 191.642 248.433 191.959 247.587 192.171C246.741 192.399 245.845 192.505 244.901 192.488C243.795 192.472 242.737 192.285 241.728 191.927C240.735 191.552 239.872 191.032 239.14 190.364C238.391 189.713 237.813 188.916 237.406 187.972C236.999 187.028 236.82 185.97 236.869 184.798C236.918 183.626 237.138 182.592 237.528 181.697C237.935 180.802 238.464 180.021 239.115 179.354C239.766 178.686 240.515 178.133 241.361 177.693C242.208 177.238 243.111 176.871 244.071 176.595C245.032 176.318 246.016 176.123 247.025 176.009C248.051 175.895 249.06 175.838 250.053 175.838L253.861 175.887L254.179 174.251C254.276 173.616 254.252 173.047 254.105 172.542C253.975 172.037 253.747 171.606 253.422 171.248C253.08 170.906 252.657 170.646 252.152 170.467C251.648 170.271 251.078 170.166 250.443 170.149C249.857 170.133 249.312 170.198 248.808 170.345C248.319 170.475 247.888 170.687 247.514 170.979C247.156 171.24 246.854 171.582 246.61 172.005C246.382 172.412 246.212 172.884 246.098 173.421L239.481 173.47C239.579 172.005 239.994 170.743 240.727 169.686C241.459 168.611 242.379 167.724 243.485 167.024C244.592 166.341 245.813 165.844 247.147 165.535C248.498 165.21 249.833 165.055 251.151 165.071C252.535 165.104 253.845 165.324 255.082 165.73C256.319 166.137 257.393 166.723 258.305 167.488C259.2 168.27 259.875 169.23 260.331 170.369C260.803 171.508 260.966 172.835 260.819 174.349L258.988 185.701C258.842 186.661 258.728 187.646 258.646 188.655C258.581 189.648 258.72 190.617 259.062 191.561L259.037 192H252.47ZM246.635 187.264C247.302 187.28 247.953 187.207 248.588 187.044C249.223 186.881 249.817 186.637 250.37 186.312C250.761 186.084 251.135 185.815 251.493 185.506C251.868 185.197 252.209 184.855 252.519 184.48L253.349 179.915L250.346 179.891C249.695 179.891 249.035 179.948 248.368 180.062C247.701 180.175 247.074 180.354 246.488 180.599C246.114 180.794 245.748 181.014 245.39 181.258C245.032 181.486 244.722 181.771 244.462 182.112C244.25 182.389 244.071 182.706 243.925 183.064C243.778 183.423 243.673 183.821 243.607 184.261C243.542 184.765 243.575 185.205 243.705 185.579C243.835 185.953 244.039 186.263 244.315 186.507C244.592 186.751 244.926 186.938 245.316 187.068C245.723 187.199 246.163 187.264 246.635 187.264ZM295.473 165.584L290.883 192H284.242L285.878 182.747H280.116L273.427 192H266.322L274.062 181.478C273.638 181.217 273.248 180.932 272.89 180.623C272.532 180.298 272.214 179.956 271.938 179.598C271.417 178.898 271.026 178.117 270.766 177.254C270.521 176.391 270.424 175.488 270.473 174.544C270.57 172.981 270.985 171.639 271.718 170.516C272.45 169.376 273.378 168.44 274.501 167.708C275.624 166.976 276.877 166.438 278.261 166.097C279.644 165.739 281.036 165.56 282.436 165.56L295.473 165.584ZM277.016 174.739C276.934 175.26 276.959 175.716 277.089 176.106C277.235 176.481 277.455 176.798 277.748 177.059C278.041 177.335 278.391 177.547 278.798 177.693C279.205 177.84 279.644 177.921 280.116 177.938L286.684 177.962L287.904 171.028L282.167 171.004C281.597 171.02 281.028 171.11 280.458 171.272C279.888 171.435 279.368 171.663 278.896 171.956C278.407 172.265 277.992 172.656 277.65 173.128C277.325 173.584 277.113 174.121 277.016 174.739ZM358.423 149.734H381.431V183.172H392.876V192H358.423V183.172H370.454V158.602H358.423V149.734ZM369.673 138.914C369.673 138.081 369.816 137.312 370.103 136.609C370.415 135.88 370.845 135.255 371.392 134.734C371.938 134.24 372.59 133.849 373.345 133.562C374.126 133.276 374.985 133.133 375.923 133.133C377.85 133.133 379.373 133.68 380.493 134.773C381.639 135.841 382.212 137.221 382.212 138.914C382.212 140.607 381.639 142 380.493 143.094C379.373 144.161 377.85 144.695 375.923 144.695C374.985 144.695 374.126 144.552 373.345 144.266C372.59 143.979 371.938 143.576 371.392 143.055C370.845 142.56 370.415 141.961 370.103 141.258C369.816 140.529 369.673 139.747 369.673 138.914ZM427.501 139.383V149.734H443.282V157.742H427.501V175.906C427.501 177.443 427.67 178.732 428.009 179.773C428.373 180.789 428.881 181.596 429.532 182.195C430.183 182.82 430.965 183.263 431.876 183.523C432.813 183.784 433.855 183.914 435.001 183.914C435.834 183.914 436.681 183.875 437.54 183.797C438.425 183.719 439.272 183.615 440.079 183.484C440.86 183.38 441.59 183.263 442.267 183.133C442.97 183.003 443.569 182.872 444.063 182.742L445.118 190.203C444.363 190.646 443.478 191.036 442.462 191.375C441.446 191.688 440.366 191.948 439.22 192.156C438.074 192.365 436.876 192.521 435.626 192.625C434.402 192.755 433.191 192.82 431.993 192.82C429.675 192.82 427.566 192.521 425.665 191.922C423.79 191.297 422.188 190.333 420.86 189.031C419.506 187.755 418.465 186.128 417.735 184.148C417.006 182.143 416.642 179.747 416.642 176.961V157.742H406.993V149.734H416.642V139.383H427.501ZM528.587 176.18H522.22V192H511.36V149.734H522.22V165.906H527.845L539.212 149.734H552.884L537.376 170.086L554.134 192H539.759L528.587 176.18ZM562.235 170.477C562.235 167.404 562.678 164.565 563.563 161.961C564.449 159.331 565.751 157.052 567.47 155.125C569.162 153.198 571.233 151.688 573.681 150.594C576.155 149.5 578.98 148.953 582.157 148.953C585.334 148.953 588.16 149.5 590.634 150.594C593.108 151.688 595.204 153.198 596.923 155.125C598.616 157.052 599.905 159.331 600.79 161.961C601.675 164.565 602.118 167.404 602.118 170.477V171.297C602.118 174.396 601.675 177.26 600.79 179.891C599.905 182.495 598.616 184.76 596.923 186.688C595.23 188.615 593.147 190.125 590.673 191.219C588.199 192.286 585.386 192.82 582.235 192.82C579.058 192.82 576.22 192.286 573.72 191.219C571.246 190.125 569.162 188.615 567.47 186.688C565.751 184.76 564.449 182.495 563.563 179.891C562.678 177.26 562.235 174.396 562.235 171.297V170.477ZM573.095 171.297C573.095 173.068 573.264 174.734 573.603 176.297C573.941 177.833 574.475 179.174 575.204 180.32C575.933 181.492 576.871 182.417 578.017 183.094C579.188 183.771 580.595 184.109 582.235 184.109C583.824 184.109 585.191 183.771 586.337 183.094C587.483 182.417 588.42 181.492 589.149 180.32C589.853 179.174 590.373 177.833 590.712 176.297C591.05 174.734 591.22 173.068 591.22 171.297V170.477C591.22 168.758 591.05 167.13 590.712 165.594C590.373 164.057 589.853 162.703 589.149 161.531C588.42 160.359 587.483 159.435 586.337 158.758C585.191 158.081 583.798 157.742 582.157 157.742C580.543 157.742 579.162 158.081 578.017 158.758C576.871 159.435 575.933 160.359 575.204 161.531C574.475 162.703 573.941 164.057 573.603 165.594C573.264 167.13 573.095 168.758 573.095 170.477V171.297ZM634.048 179.07L639.985 149.734H653.579V192H643.97V168.445L637.681 192H630.376L624.282 169.031V192H614.673V149.734H628.188L634.048 179.07ZM704.649 192H693.751V158.562H677.931V192H667.032V149.734H704.649V192ZM746.267 192C746.006 191.479 745.785 190.88 745.603 190.203C745.42 189.526 745.264 188.81 745.134 188.055C744.535 188.706 743.845 189.318 743.063 189.891C742.282 190.464 741.423 190.958 740.485 191.375C739.522 191.818 738.467 192.156 737.321 192.391C736.175 192.651 734.938 192.781 733.61 192.781C731.449 192.781 729.457 192.469 727.634 191.844C725.837 191.219 724.287 190.346 722.985 189.227C721.683 188.107 720.668 186.779 719.938 185.242C719.209 183.68 718.845 181.987 718.845 180.164C718.845 177.82 719.3 175.75 720.212 173.953C721.123 172.13 722.491 170.633 724.313 169.461C725.954 168.393 727.972 167.586 730.368 167.039C732.79 166.466 735.563 166.18 738.688 166.18H744.743V163.68C744.743 162.69 744.587 161.805 744.274 161.023C743.962 160.216 743.493 159.526 742.868 158.953C742.217 158.354 741.397 157.898 740.407 157.586C739.444 157.247 738.311 157.078 737.009 157.078C735.863 157.078 734.873 157.221 734.04 157.508C733.207 157.768 732.53 158.146 732.009 158.641C731.54 159.083 731.188 159.617 730.954 160.242C730.746 160.867 730.642 161.557 730.642 162.312H719.782C719.782 160.516 720.173 158.81 720.954 157.195C721.761 155.581 722.933 154.161 724.47 152.938C725.98 151.714 727.829 150.75 730.017 150.047C732.23 149.318 734.756 148.953 737.595 148.953C740.147 148.953 742.517 149.266 744.704 149.891C746.918 150.516 748.832 151.44 750.446 152.664C752.061 153.888 753.324 155.438 754.235 157.312C755.147 159.161 755.603 161.31 755.603 163.758V181.883C755.603 184.148 755.746 186.023 756.032 187.508C756.319 188.992 756.735 190.268 757.282 191.336V192H746.267ZM735.915 184.383C737.009 184.383 738.024 184.253 738.962 183.992C739.899 183.732 740.746 183.393 741.501 182.977C742.256 182.56 742.907 182.091 743.454 181.57C744.001 181.023 744.431 180.477 744.743 179.93V172.664H739.196C737.504 172.664 736.058 172.833 734.86 173.172C733.662 173.484 732.686 173.927 731.931 174.5C731.175 175.099 730.616 175.815 730.251 176.648C729.886 177.456 729.704 178.341 729.704 179.305C729.704 180.06 729.834 180.763 730.095 181.414C730.381 182.039 730.785 182.573 731.306 183.016C731.826 183.432 732.465 183.771 733.22 184.031C734.001 184.266 734.899 184.383 735.915 184.383ZM808.704 192H797.806V175.594H782.024V192H771.126V149.734H782.024V166.844H797.806V149.734H808.704V192ZM849.931 149.734H860.79V192H849.931V165.047L834.032 192H823.173V149.734H834.032V176.688L849.931 149.734ZM913.657 149.734V192H902.798V177.195H892.954L884.595 192H873.501L882.876 175.359C880.402 174.266 878.462 172.703 877.056 170.672C875.649 168.641 874.946 166.336 874.946 163.758C874.946 161.727 875.35 159.865 876.157 158.172C876.991 156.453 878.175 154.969 879.712 153.719C881.248 152.469 883.11 151.492 885.298 150.789C887.511 150.086 890.011 149.734 892.798 149.734H913.657ZM885.806 164.07C885.806 164.721 885.936 165.372 886.196 166.023C886.483 166.674 886.899 167.26 887.446 167.781C887.993 168.302 888.683 168.732 889.517 169.07C890.35 169.383 891.34 169.539 892.485 169.539H902.798V158.445H892.798C891.6 158.445 890.558 158.615 889.673 158.953C888.813 159.292 888.097 159.721 887.524 160.242C886.951 160.789 886.522 161.401 886.235 162.078C885.949 162.729 885.806 163.393 885.806 164.07ZM135.5 342.109C136.568 342.109 137.583 341.953 138.547 341.641C139.51 341.328 140.357 340.885 141.086 340.312C141.815 339.74 142.375 339.049 142.766 338.242C143.182 337.435 143.365 336.536 143.312 335.547H153.547C153.599 337.734 153.143 339.766 152.18 341.641C151.242 343.516 149.953 345.13 148.312 346.484C146.672 347.839 144.758 348.906 142.57 349.688C140.409 350.443 138.117 350.82 135.695 350.82C132.414 350.82 129.536 350.273 127.062 349.18C124.589 348.06 122.531 346.536 120.891 344.609C119.224 342.682 117.961 340.43 117.102 337.852C116.268 335.247 115.852 332.461 115.852 329.492V328.32C115.852 325.352 116.268 322.578 117.102 320C117.935 317.396 119.185 315.13 120.852 313.203C122.518 311.276 124.576 309.753 127.023 308.633C129.497 307.513 132.362 306.953 135.617 306.953C138.221 306.953 140.63 307.344 142.844 308.125C145.057 308.906 146.971 310 148.586 311.406C150.174 312.839 151.411 314.57 152.297 316.602C153.182 318.607 153.599 320.859 153.547 323.359H143.312C143.365 322.318 143.208 321.328 142.844 320.391C142.479 319.453 141.945 318.646 141.242 317.969C140.539 317.292 139.693 316.758 138.703 316.367C137.714 315.951 136.633 315.742 135.461 315.742C133.742 315.742 132.323 316.094 131.203 316.797C130.083 317.5 129.198 318.438 128.547 319.609C127.87 320.781 127.388 322.122 127.102 323.633C126.841 325.143 126.711 326.706 126.711 328.32V329.492C126.711 331.133 126.841 332.721 127.102 334.258C127.362 335.768 127.831 337.096 128.508 338.242C129.159 339.414 130.044 340.352 131.164 341.055C132.31 341.758 133.755 342.109 135.5 342.109ZM255.59 290.117C259.691 290.195 263.207 291.074 266.137 292.754C269.105 294.434 271.508 296.621 273.344 299.316C275.141 302.051 276.391 305.176 277.094 308.691C277.836 312.168 278.031 315.781 277.68 319.531L277.562 320.762C277.094 325.137 275.98 329.199 274.223 332.949C272.465 336.699 270.18 339.941 267.367 342.676C264.555 345.41 261.254 347.539 257.465 349.062C253.676 350.586 249.516 351.309 244.984 351.23C240.414 351.152 236.469 350.195 233.148 348.359C229.828 346.523 227.152 344.102 225.121 341.094C223.051 338.125 221.605 334.707 220.785 330.84C220.004 326.973 219.828 322.93 220.258 318.711L220.434 317.48L220.375 317.363L220.668 315.137C221.137 311.621 221.781 308.086 222.602 304.531C223.461 300.977 224.535 297.539 225.824 294.219C227.074 290.898 228.598 287.754 230.395 284.785C232.191 281.777 234.301 279.062 236.723 276.641C239.145 274.219 241.879 272.148 244.926 270.43C248.012 268.711 251.488 267.461 255.355 266.68C256.684 266.406 258.051 266.133 259.457 265.859C260.902 265.586 262.27 265.176 263.559 264.629C264.809 264.082 265.902 263.359 266.84 262.461C267.777 261.523 268.402 260.293 268.715 258.77H281.664C281.43 262.363 280.629 265.352 279.262 267.734C277.934 270.078 276.195 272.012 274.047 273.535C271.898 275.098 269.418 276.328 266.605 277.227C263.793 278.086 260.805 278.828 257.641 279.453C254.867 280 252.387 280.82 250.199 281.914C248.051 282.969 246.117 284.277 244.398 285.84C242.641 287.441 241.078 289.277 239.711 291.348C238.344 293.418 237.113 295.703 236.02 298.203C238.793 295.664 241.781 293.672 244.984 292.227C248.227 290.742 251.762 290.039 255.59 290.117ZM251.371 303.242C248.949 303.203 246.84 303.633 245.043 304.531C243.246 305.43 241.723 306.641 240.473 308.164C239.184 309.727 238.168 311.523 237.426 313.555C236.684 315.547 236.195 317.617 235.961 319.766L235.844 320.996C235.648 322.949 235.629 324.941 235.785 326.973C235.941 328.965 236.391 330.781 237.133 332.422C237.836 334.062 238.91 335.43 240.355 336.523C241.801 337.578 243.734 338.145 246.156 338.223C248.656 338.301 250.824 337.852 252.66 336.875C254.496 335.859 256.039 334.512 257.289 332.832C258.539 331.191 259.516 329.316 260.219 327.207C260.961 325.098 261.449 322.949 261.684 320.762L261.801 319.531C261.957 317.617 261.938 315.703 261.742 313.789C261.547 311.875 261.078 310.137 260.336 308.574C259.555 307.051 258.441 305.801 256.996 304.824C255.551 303.848 253.676 303.32 251.371 303.242ZM296.043 318.125C296.59 313.672 297.742 309.453 299.5 305.469C301.297 301.445 303.621 297.93 306.473 294.922C309.324 291.914 312.684 289.551 316.551 287.832C320.457 286.113 324.793 285.312 329.559 285.43C332.879 285.469 335.848 285.977 338.465 286.953C341.121 287.93 343.426 289.258 345.379 290.938C346.941 292.344 348.309 293.906 349.48 295.625C350.652 297.305 351.609 299.121 352.352 301.074C353.25 303.535 353.836 306.172 354.109 308.984C354.422 311.758 354.422 314.609 354.109 317.539L353.934 318.828C353.387 323.281 352.215 327.5 350.418 331.484C348.66 335.43 346.355 338.887 343.504 341.855C340.652 344.824 337.273 347.168 333.367 348.887C329.5 350.566 325.203 351.348 320.477 351.23C317.039 351.152 313.895 350.566 311.043 349.473C308.23 348.379 305.965 346.992 304.246 345.312C302.723 343.789 301.434 342.246 300.379 340.684C299.324 339.121 298.426 337.383 297.684 335.469C296.785 333.086 296.18 330.527 295.867 327.793C295.594 325.059 295.613 322.246 295.926 319.355L296.043 318.125ZM311.805 319.355C311.609 321.309 311.531 323.379 311.57 325.566C311.609 327.715 311.961 329.707 312.625 331.543C313.25 333.418 314.266 335 315.672 336.289C317.117 337.539 319.109 338.203 321.648 338.281C324.305 338.359 326.59 337.812 328.504 336.641C330.457 335.43 332.098 333.867 333.426 331.953C334.715 330.078 335.711 327.988 336.414 325.684C337.156 323.34 337.684 321.055 337.996 318.828L338.113 317.598C338.309 315.488 338.367 313.242 338.289 310.859C338.25 308.477 337.762 306.211 336.824 304.062C336.121 302.461 335.086 301.172 333.719 300.195C332.352 299.219 330.574 298.672 328.387 298.555C325.691 298.477 323.367 299.023 321.414 300.195C319.5 301.367 317.898 302.91 316.609 304.824C315.281 306.738 314.227 308.867 313.445 311.211C312.703 313.555 312.195 315.859 311.922 318.125L311.805 319.355ZM433.645 286.602L422.629 350H406.691L415.422 299.844H398.781L396.496 313.613C396.066 316.582 395.52 319.551 394.855 322.52C394.191 325.488 393.352 328.34 392.336 331.074C391.32 333.809 390.09 336.348 388.645 338.691C387.199 340.996 385.461 343.008 383.43 344.727C381.359 346.445 378.938 347.773 376.164 348.711C373.43 349.648 370.285 350.078 366.73 350H363.566L364.914 336.641L366.613 336.699C368.605 336.738 370.305 336.406 371.711 335.703C373.156 334.961 374.367 333.984 375.344 332.773C376.281 331.562 377.043 330.176 377.629 328.613C378.254 327.012 378.742 325.352 379.094 323.633C379.445 321.914 379.719 320.195 379.914 318.477C380.148 316.719 380.383 315.098 380.617 313.613L385.129 286.602H433.645ZM468.473 307.93L483.062 307.988C486.188 308.066 489.195 308.535 492.086 309.395C495.016 310.254 497.574 311.523 499.762 313.203C501.949 314.883 503.648 317.012 504.859 319.59C506.109 322.129 506.637 325.156 506.441 328.672C506.207 332.461 505.191 335.703 503.395 338.398C501.637 341.094 499.391 343.301 496.656 345.02C493.922 346.777 490.875 348.066 487.516 348.887C484.195 349.668 480.855 350.039 477.496 350H445.27L456.285 286.602H472.164L468.473 307.93ZM466.246 320.996L463.434 336.992L478.141 337.051C479.508 337.012 480.875 336.855 482.242 336.582C483.609 336.27 484.879 335.781 486.051 335.117C487.184 334.492 488.16 333.652 488.98 332.598C489.801 331.543 490.328 330.254 490.562 328.73C490.797 327.363 490.738 326.211 490.387 325.273C490.035 324.297 489.488 323.496 488.746 322.871C487.965 322.285 487.027 321.855 485.934 321.582C484.84 321.27 483.688 321.094 482.477 321.055L466.246 320.996ZM545.02 286.602L536.289 336.934H543.73L552.52 286.602H567.461L558.73 336.934H566.172L574.961 286.602H590.371L579.355 350H518.594L529.609 286.602H545.02ZM646.703 286.602H662.992L651.977 350H636.098L643.012 310.508L613.48 350H597.191L608.207 286.602H624.086L617.172 326.094L646.703 286.602ZM704.617 330.371L720.848 286.602H740.887L729.871 350H715.75L721.727 315.898L706.902 350H696.238L693.309 315.078L687.215 350H673.152L684.168 286.602H703.738L704.617 330.371ZM799.562 286.602H815.852L804.836 350H788.957L795.871 310.508L766.34 350H750.051L761.066 286.602H776.945L770.031 326.094L799.562 286.602ZM239.18 456C238.919 455.479 238.698 454.88 238.516 454.203C238.333 453.526 238.177 452.81 238.047 452.055C237.448 452.706 236.758 453.318 235.977 453.891C235.195 454.464 234.336 454.958 233.398 455.375C232.435 455.818 231.38 456.156 230.234 456.391C229.089 456.651 227.852 456.781 226.523 456.781C224.362 456.781 222.37 456.469 220.547 455.844C218.75 455.219 217.201 454.346 215.898 453.227C214.596 452.107 213.581 450.779 212.852 449.242C212.122 447.68 211.758 445.987 211.758 444.164C211.758 441.82 212.214 439.75 213.125 437.953C214.036 436.13 215.404 434.633 217.227 433.461C218.867 432.393 220.885 431.586 223.281 431.039C225.703 430.466 228.477 430.18 231.602 430.18H237.656V427.68C237.656 426.69 237.5 425.805 237.188 425.023C236.875 424.216 236.406 423.526 235.781 422.953C235.13 422.354 234.31 421.898 233.32 421.586C232.357 421.247 231.224 421.078 229.922 421.078C228.776 421.078 227.786 421.221 226.953 421.508C226.12 421.768 225.443 422.146 224.922 422.641C224.453 423.083 224.102 423.617 223.867 424.242C223.659 424.867 223.555 425.557 223.555 426.312H212.695C212.695 424.516 213.086 422.81 213.867 421.195C214.674 419.581 215.846 418.161 217.383 416.938C218.893 415.714 220.742 414.75 222.93 414.047C225.143 413.318 227.669 412.953 230.508 412.953C233.06 412.953 235.43 413.266 237.617 413.891C239.831 414.516 241.745 415.44 243.359 416.664C244.974 417.888 246.237 419.438 247.148 421.312C248.06 423.161 248.516 425.31 248.516 427.758V445.883C248.516 448.148 248.659 450.023 248.945 451.508C249.232 452.992 249.648 454.268 250.195 455.336V456H239.18ZM228.828 448.383C229.922 448.383 230.938 448.253 231.875 447.992C232.812 447.732 233.659 447.393 234.414 446.977C235.169 446.56 235.82 446.091 236.367 445.57C236.914 445.023 237.344 444.477 237.656 443.93V436.664H232.109C230.417 436.664 228.971 436.833 227.773 437.172C226.576 437.484 225.599 437.927 224.844 438.5C224.089 439.099 223.529 439.815 223.164 440.648C222.799 441.456 222.617 442.341 222.617 443.305C222.617 444.06 222.747 444.763 223.008 445.414C223.294 446.039 223.698 446.573 224.219 447.016C224.74 447.432 225.378 447.771 226.133 448.031C226.914 448.266 227.812 448.383 228.828 448.383ZM283.102 443.07L289.039 413.734H302.633V456H293.023V432.445L286.734 456H279.43L273.336 433.031V456H263.727V413.734H277.242L283.102 443.07ZM337.727 416.078C340.565 416.078 343.078 416.586 345.266 417.602C347.479 418.591 349.341 419.958 350.852 421.703C352.362 423.474 353.508 425.557 354.289 427.953C355.07 430.349 355.461 432.953 355.461 435.766V436.586C355.461 439.503 355.018 442.198 354.133 444.672C353.273 447.146 352.01 449.281 350.344 451.078C348.651 452.875 346.568 454.281 344.094 455.297C341.646 456.312 338.846 456.82 335.695 456.82C332.518 456.82 329.693 456.273 327.219 455.18C324.771 454.086 322.701 452.576 321.008 450.648C319.315 448.721 318.026 446.443 317.141 443.812C316.281 441.156 315.852 438.266 315.852 435.141V432.758C315.852 430.336 315.956 428.07 316.164 425.961C316.398 423.826 316.724 421.846 317.141 420.023C317.583 418.018 318.13 416.169 318.781 414.477C319.458 412.784 320.24 411.26 321.125 409.906C322.766 407.302 324.758 405.232 327.102 403.695C329.445 402.159 332.062 401.078 334.953 400.453C336.359 400.167 337.57 399.88 338.586 399.594C339.602 399.307 340.448 398.969 341.125 398.578C341.776 398.188 342.258 397.719 342.57 397.172C342.883 396.625 343.039 395.961 343.039 395.18H351.828C351.828 397.341 351.542 399.177 350.969 400.688C350.422 402.198 349.549 403.474 348.352 404.516C347.128 405.583 345.578 406.469 343.703 407.172C341.828 407.875 339.562 408.487 336.906 409.008C335.318 409.346 333.859 409.828 332.531 410.453C331.229 411.052 330.07 411.846 329.055 412.836C328.039 413.826 327.18 415.023 326.477 416.43C325.773 417.836 325.24 419.503 324.875 421.43C325.708 420.596 326.581 419.867 327.492 419.242C328.404 418.591 329.354 418.044 330.344 417.602C331.438 417.107 332.596 416.729 333.82 416.469C335.07 416.208 336.372 416.078 337.727 416.078ZM335.617 424.867C334.003 424.867 332.622 425.167 331.477 425.766C330.357 426.339 329.445 427.12 328.742 428.109C328.039 429.125 327.531 430.297 327.219 431.625C326.906 432.927 326.75 434.307 326.75 435.766V436.586C326.75 438.174 326.906 439.672 327.219 441.078C327.531 442.484 328.039 443.708 328.742 444.75C329.445 445.792 330.37 446.612 331.516 447.211C332.661 447.81 334.055 448.109 335.695 448.109C337.31 448.109 338.677 447.81 339.797 447.211C340.943 446.612 341.867 445.792 342.57 444.75C343.273 443.708 343.781 442.484 344.094 441.078C344.432 439.672 344.602 438.174 344.602 436.586V435.766C344.602 434.307 344.432 432.927 344.094 431.625C343.781 430.297 343.273 429.125 342.57 428.109C341.867 427.12 340.943 426.339 339.797 425.766C338.651 425.167 337.258 424.867 335.617 424.867ZM394.891 413.734H405.75V456H394.891V429.047L378.992 456H368.133V413.734H378.992V440.688L394.891 413.734ZM420.18 413.734H431.078V447.289H445.727V413.734H456.625V447.328H462.797L462.016 468.539H451.977V456H420.18V413.734ZM498.984 413.734H509.844V456H498.984V429.047L483.086 456H472.227V413.734H483.086V440.688L498.984 413.734ZM562.711 413.734V456H551.852V441.195H542.008L533.648 456H522.555L531.93 439.359C529.456 438.266 527.516 436.703 526.109 434.672C524.703 432.641 524 430.336 524 427.758C524 425.727 524.404 423.865 525.211 422.172C526.044 420.453 527.229 418.969 528.766 417.719C530.302 416.469 532.164 415.492 534.352 414.789C536.565 414.086 539.065 413.734 541.852 413.734H562.711ZM534.859 428.07C534.859 428.721 534.99 429.372 535.25 430.023C535.536 430.674 535.953 431.26 536.5 431.781C537.047 432.302 537.737 432.732 538.57 433.07C539.404 433.383 540.393 433.539 541.539 433.539H551.852V422.445H541.852C540.654 422.445 539.612 422.615 538.727 422.953C537.867 423.292 537.151 423.721 536.578 424.242C536.005 424.789 535.576 425.401 535.289 426.078C535.003 426.729 534.859 427.393 534.859 428.07ZM595.383 443.07L601.32 413.734H614.914V456H605.305V432.445L599.016 456H591.711L585.617 433.031V456H576.008V413.734H589.523L595.383 443.07ZM655.125 413.734H665.984V456H655.125V429.047L639.227 456H628.367V413.734H639.227V440.688L655.125 413.734ZM704.633 436.117H694.75L694.125 399.125H705.258L704.633 436.117ZM693.344 450.688C693.344 448.969 693.904 447.536 695.023 446.391C696.143 445.245 697.693 444.672 699.672 444.672C701.599 444.672 703.135 445.245 704.281 446.391C705.427 447.536 706 448.969 706 450.688C706 452.354 705.427 453.76 704.281 454.906C703.135 456.026 701.599 456.586 699.672 456.586C697.693 456.586 696.143 456.026 695.023 454.906C693.904 453.76 693.344 452.354 693.344 450.688Z" fill="#212121"/>
</svg>
