<svg width="587" height="587" viewBox="0 0 587 587" fill="none" xmlns="http://www.w3.org/2000/svg">
<g opacity="0.4">
<circle cx="292.498" cy="292.498" r="292.498" transform="matrix(-1 0 0 1 586 1)" stroke="#212121" stroke-width="2" stroke-linecap="round" stroke-linejoin="round" stroke-dasharray="15 15"/>
<ellipse cx="227.131" cy="292.498" rx="227.131" ry="292.498" transform="matrix(-1 0 0 1 520.645 1)" stroke="#212121" stroke-width="2" stroke-linecap="round" stroke-linejoin="round" stroke-dasharray="15 15"/>
<ellipse cx="227.131" cy="292.498" rx="227.131" ry="292.498" transform="matrix(4.37114e-08 1 1 -4.37114e-08 1 66.3579)" stroke="#212121" stroke-width="2" stroke-linecap="round" stroke-linejoin="round" stroke-dasharray="15 15"/>
<ellipse cx="108.808" cy="292.498" rx="108.808" ry="292.498" transform="matrix(-1 0 0 1 402.324 1)" stroke="#212121" stroke-width="2" stroke-linecap="round" stroke-linejoin="round" stroke-dasharray="15 15"/>
<ellipse cx="108.808" cy="292.498" rx="108.808" ry="292.498" transform="matrix(4.37114e-08 1 1 -4.37114e-08 1 184.677)" stroke="#212121" stroke-width="2" stroke-linecap="round" stroke-linejoin="round" stroke-dasharray="15 15"/>
<ellipse cx="0.41373" cy="292.498" rx="0.41373" ry="292.498" transform="matrix(4.37114e-08 1 1 -4.37114e-08 1 293.077)" stroke="#212121" stroke-width="2" stroke-linecap="round" stroke-linejoin="round" stroke-dasharray="15 15"/>
<ellipse cx="0.41373" cy="292.498" rx="0.41373" ry="292.498" transform="matrix(1 -8.74228e-08 -8.74228e-08 -1 293.076 585.999)" stroke="#212121" stroke-width="2" stroke-linecap="round" stroke-linejoin="round" stroke-dasharray="15 15"/>
</g>
</svg>
