<svg width="420" height="621" viewBox="0 0 420 621" fill="none" xmlns="http://www.w3.org/2000/svg">
<g opacity="0.4">
<circle cx="101.745" cy="101.745" r="101.745" transform="matrix(-1 0 0 1 205.489 2)" stroke="#FEFEFE" stroke-width="2.40203" stroke-linecap="round" stroke-dasharray="5.93 5.93"/>
</g>
<g opacity="0.4">
<circle cx="101.745" cy="101.745" r="101.745" transform="matrix(-1 0 0 1 418.351 2)" stroke="#FEFEFE" stroke-width="2.40203"/>
<ellipse cx="79.0068" cy="101.745" rx="79.0068" ry="101.745" transform="matrix(-1 0 0 1 395.616 2)" stroke="#FEFEFE" stroke-width="2.40203"/>
</g>
<g opacity="0.4">
<circle cx="101.745" cy="101.745" r="101.745" transform="matrix(-1 0 0 1 207.291 209.094)" stroke="#FEFEFE" stroke-width="2.40203"/>
<ellipse cx="79.0068" cy="101.745" rx="79.0068" ry="101.745" transform="matrix(-1 0 0 1 184.557 209.094)" stroke="#FEFEFE" stroke-width="2.40203"/>
<ellipse cx="79.0068" cy="101.745" rx="79.0068" ry="101.745" transform="matrix(4.37114e-08 1 1 -4.37114e-08 3.80176 231.829)" stroke="#FEFEFE" stroke-width="2.40203"/>
</g>
<g opacity="0.4">
<circle cx="101.745" cy="101.745" r="101.745" transform="matrix(-1 0 0 1 417.994 209.059)" stroke="#FEFEFE" stroke-width="2.40203"/>
<ellipse cx="79.0068" cy="101.745" rx="79.0068" ry="101.745" transform="matrix(-1 0 0 1 395.26 209.059)" stroke="#FEFEFE" stroke-width="2.40203"/>
<ellipse cx="79.0068" cy="101.745" rx="79.0068" ry="101.745" transform="matrix(4.37114e-08 1 1 -4.37114e-08 214.503 231.794)" stroke="#FEFEFE" stroke-width="2.40203"/>
<ellipse cx="37.8484" cy="101.745" rx="37.8484" ry="101.745" transform="matrix(-1 0 0 1 354.103 209.059)" stroke="#FEFEFE" stroke-width="2.40203"/>
</g>
<g opacity="0.4">
<circle cx="101.745" cy="101.745" r="101.745" transform="matrix(-1 0 0 1 209.155 416.181)" stroke="#FEFEFE" stroke-width="2.40203"/>
<ellipse cx="79.0068" cy="101.745" rx="79.0068" ry="101.745" transform="matrix(-1 0 0 1 189.572 416.181)" stroke="#FEFEFE" stroke-width="2.40203"/>
<ellipse cx="79.0068" cy="101.745" rx="79.0068" ry="101.745" transform="matrix(4.37114e-08 1 1 -4.37114e-08 5.14746 439.622)" stroke="#FEFEFE" stroke-width="2.40203"/>
<ellipse cx="37.8484" cy="101.745" rx="37.8484" ry="101.745" transform="matrix(-1 0 0 1 148.415 416.181)" stroke="#FEFEFE" stroke-width="2.40203"/>
<ellipse cx="37.8484" cy="101.745" rx="37.8484" ry="101.745" transform="matrix(4.37114e-08 1 1 -4.37114e-08 5.14746 480.782)" stroke="#FEFEFE" stroke-width="2.40203"/>
</g>
<g opacity="0.4">
<circle cx="101.745" cy="101.745" r="101.745" transform="matrix(-1 0 0 1 417.994 416.181)" stroke="#FEFEFE" stroke-width="2.40203"/>
<ellipse cx="79.0068" cy="101.745" rx="79.0068" ry="101.745" transform="matrix(-1 0 0 1 395.26 416.181)" stroke="#FEFEFE" stroke-width="2.40203"/>
<ellipse cx="79.0068" cy="101.745" rx="79.0068" ry="101.745" transform="matrix(4.37114e-08 1 1 -4.37114e-08 214.503 438.916)" stroke="#FEFEFE" stroke-width="2.40203"/>
<ellipse cx="37.8484" cy="101.745" rx="37.8484" ry="101.745" transform="matrix(-1 0 0 1 354.103 416.181)" stroke="#FEFEFE" stroke-width="2.40203"/>
<ellipse cx="37.8484" cy="101.745" rx="37.8484" ry="101.745" transform="matrix(4.37114e-08 1 1 -4.37114e-08 214.503 480.072)" stroke="#FEFEFE" stroke-width="2.40203"/>
<ellipse cx="0.143915" cy="101.745" rx="0.143915" ry="101.745" transform="matrix(4.37114e-08 1 1 -4.37114e-08 214.503 517.779)" stroke="#FEFEFE" stroke-width="2.40203"/>
<ellipse cx="0.143915" cy="101.745" rx="0.143915" ry="101.745" transform="matrix(1 -8.74228e-08 -8.74228e-08 -1 316.102 619.671)" stroke="#FEFEFE" stroke-width="2.40203"/>
</g>
</svg>
