<svg width="748" height="748" viewBox="0 0 748 748" fill="none" xmlns="http://www.w3.org/2000/svg">
<g opacity="0.35">
<path d="M3.00743 373.998C3.00743 578.895 169.108 744.997 374.004 744.997C578.899 744.997 745 578.895 745 373.998C745 169.102 578.899 3 374.004 3C169.108 3 3.00743 169.102 3.00743 373.998Z" stroke="#FEFEFE" stroke-width="5"/>
<path d="M85.929 373.998C85.929 578.895 214.91 744.997 374.015 744.997C533.121 744.997 662.101 578.895 662.101 373.998C662.101 169.102 533.121 3 374.015 3C214.91 3 85.929 169.102 85.929 373.998Z" stroke="#FEFEFE" stroke-width="5"/>
<path d="M373.996 662.075C578.892 662.075 744.993 533.093 744.993 373.987C744.993 214.88 578.892 85.899 373.996 85.899C169.101 85.899 3.00001 214.88 3.00001 373.987C3.00002 533.094 169.101 662.075 373.996 662.075Z" stroke="#FEFEFE" stroke-width="5"/>
<path d="M236.013 373.998C236.013 578.895 297.801 744.997 374.021 744.997C450.241 744.997 512.03 578.895 512.03 373.998C512.03 169.102 450.241 3 374.021 3C297.801 3 236.013 169.102 236.013 373.998Z" stroke="#FEFEFE" stroke-width="5"/>
<path d="M373.996 511.99C578.892 511.99 744.993 450.201 744.993 373.981C744.993 297.76 578.892 235.971 373.996 235.971C169.101 235.971 3 297.76 3.00001 373.981C3.00001 450.201 169.101 511.99 373.996 511.99Z" stroke="#FEFEFE" stroke-width="5"/>
<path d="M373.996 374.514C578.892 374.514 744.993 374.279 744.993 373.989C744.993 373.699 578.892 373.464 373.996 373.464C169.101 373.464 3 373.699 3 373.989C3 374.279 169.101 374.514 373.996 374.514Z" stroke="#FEFEFE" stroke-width="5"/>
<path d="M374.514 374.002C374.514 169.105 374.279 3.00317 373.99 3.00317C373.7 3.00317 373.465 169.105 373.465 374.002C373.465 578.898 373.7 745 373.99 745C374.279 745 374.514 578.898 374.514 374.002Z" stroke="#FEFEFE" stroke-width="5"/>
</g>
</svg>
