<svg width="526" height="59" viewBox="0 0 526 59" fill="none" xmlns="http://www.w3.org/2000/svg">
<path fill-rule="evenodd" clip-rule="evenodd" d="M40.5729 0L28.2463 30.3872L15.9375 0H0L23.7461 58.5622H32.7643L56.5104 0H40.5729ZM64.0688 0H62.4502V58.5622H64.0688H77.4627H94.8054V44.6694H77.4627V35.7143H92.244V21.8214H77.4627V13.8928H94.8054V0H77.4627H64.0688ZM147.879 0L160.206 30.3872L172.532 0H188.452L164.706 58.5622H155.688L131.941 0H147.879ZM196.028 0H194.409V58.5622H196.028H209.422H257.344V44.6694H209.422V35.7143L254.783 35.7143V21.8214L209.422 21.8214V14.2065L257.344 14.2065L257.344 14.2065L269.383 14.2065V58.5622H284.261V14.2065H295.772V0H257.344H257.344H209.422H196.028ZM381.612 0H383.231H396.625H413.967V13.8928H396.625V21.8214H411.406V35.7143H396.625V44.6694H413.967V58.5622H396.625H383.231H381.612V0ZM120.213 0H105.219V58.5622H106.837H120.213H137.556V44.6694H120.213V0ZM336.074 13.768H348.114V58.5622H362.991V13.768H374.502V0H336.074V13.768ZM448.968 0.157959C431.804 0.157959 419.844 12.8372 419.844 29.3202C419.844 46.1202 431.105 58.7201 448.968 58.7201C459.143 58.7201 466.443 54.3616 471.336 49.2107L464.346 39.0673C460.541 42.9503 455.104 46.0409 449.59 46.0409C438.872 46.0409 433.901 37.4032 433.901 29.0032C433.901 20.8409 438.484 12.8372 449.59 12.8372C454.56 12.8372 459.919 15.4523 463.492 18.6221L469.783 8.16172C464.346 2.6938 456.424 0.157959 448.968 0.157959ZM478.238 0.157959V58.7201H491.83V35.5805H512.023V58.7201H525.614V0.157959H512.023V23.773H491.83V0.157959H478.238Z" fill="#FEFEFE"/>
</svg>
