<svg width="902" height="336" viewBox="0 0 902 336" fill="none" xmlns="http://www.w3.org/2000/svg">
<path d="M15.3037 23.4531L16.2314 36.71L22.2373 23.4531H30.6357L24.459 59H18.3066L20.1865 48.209L23.2139 32.3887L16.2559 47.2812H12.9111L11.4219 32.2666L8.83398 48.7461L7.05176 59H0.899414L7.07617 23.4531H15.3037ZM49.3955 59C49.2653 58.5768 49.1839 58.1699 49.1514 57.7793C49.1351 57.3724 49.1351 56.9574 49.1514 56.5342C48.7933 56.8597 48.4271 57.1689 48.0527 57.4619C47.6784 57.7386 47.2959 57.9909 46.9053 58.2188C46.1566 58.6419 45.359 58.9593 44.5127 59.1709C43.6663 59.3988 42.7712 59.5046 41.8271 59.4883C40.7204 59.472 39.6624 59.2848 38.6533 58.9268C37.6605 58.5524 36.7979 58.0316 36.0654 57.3643C35.3167 56.7132 34.7389 55.9157 34.332 54.9717C33.9251 54.0277 33.7461 52.9697 33.7949 51.7979C33.8438 50.626 34.0635 49.5924 34.4541 48.6973C34.861 47.8021 35.39 47.0208 36.041 46.3535C36.6921 45.6862 37.4408 45.1328 38.2871 44.6934C39.1335 44.2376 40.0368 43.8714 40.9971 43.5947C41.9574 43.318 42.9421 43.1227 43.9512 43.0088C44.9766 42.8949 45.9857 42.8379 46.9785 42.8379L50.7871 42.8867L51.1045 41.251C51.2021 40.6162 51.1777 40.0465 51.0312 39.542C50.901 39.0374 50.6732 38.6061 50.3477 38.248C50.0059 37.9062 49.5827 37.6458 49.0781 37.4668C48.5736 37.2715 48.0039 37.1657 47.3691 37.1494C46.7832 37.1331 46.238 37.1982 45.7334 37.3447C45.2451 37.4749 44.8138 37.6865 44.4395 37.9795C44.0814 38.2399 43.7803 38.5817 43.5361 39.0049C43.3083 39.4118 43.1374 39.8838 43.0234 40.4209L36.4072 40.4697C36.5049 39.0049 36.9199 37.7435 37.6523 36.6855C38.3848 35.6113 39.3044 34.7243 40.4111 34.0244C41.5179 33.3408 42.7386 32.8444 44.0732 32.5352C45.4242 32.2096 46.7588 32.055 48.0771 32.0713C49.4606 32.1038 50.7708 32.3236 52.0078 32.7305C53.2448 33.1374 54.319 33.7233 55.2305 34.4883C56.1257 35.2695 56.8011 36.2298 57.2568 37.3691C57.7288 38.5085 57.8916 39.835 57.7451 41.3486L55.9141 52.7012C55.7676 53.6615 55.6536 54.6462 55.5723 55.6553C55.5072 56.6481 55.6455 57.6165 55.9873 58.5605L55.9629 59H49.3955ZM43.5605 54.2637C44.2279 54.2799 44.8789 54.2067 45.5137 54.0439C46.1484 53.8812 46.7425 53.637 47.2959 53.3115C47.6865 53.0837 48.0609 52.8151 48.4189 52.5059C48.7933 52.1966 49.1351 51.8548 49.4443 51.4805L50.2744 46.915L47.2715 46.8906C46.6204 46.8906 45.9613 46.9476 45.2939 47.0615C44.6266 47.1755 44 47.3545 43.4141 47.5986C43.0397 47.7939 42.6735 48.0137 42.3154 48.2578C41.9574 48.4857 41.6481 48.7705 41.3877 49.1123C41.1761 49.389 40.9971 49.7064 40.8506 50.0645C40.7041 50.4225 40.5983 50.8213 40.5332 51.2607C40.4681 51.7653 40.5007 52.2048 40.6309 52.5791C40.7611 52.9535 40.9645 53.2627 41.2412 53.5068C41.5179 53.751 41.8516 53.9382 42.2422 54.0684C42.6491 54.1986 43.0885 54.2637 43.5605 54.2637ZM91.8613 32.584L87.2715 59H80.6309L84.2686 38.1016H77.335L76.3828 43.8389C76.2038 45.0758 75.9759 46.3128 75.6992 47.5498C75.4225 48.7868 75.0726 49.9749 74.6494 51.1143C74.2262 52.2536 73.7135 53.3115 73.1113 54.2881C72.5091 55.2484 71.7848 56.0866 70.9385 56.8027C70.0758 57.5189 69.0667 58.0723 67.9111 58.4629C66.7718 58.8535 65.4616 59.0326 63.9805 59H62.6621L63.2236 53.4336L63.9316 53.458C64.7617 53.4743 65.4697 53.3359 66.0557 53.043C66.6579 52.7337 67.1624 52.3268 67.5693 51.8223C67.96 51.3177 68.2773 50.7399 68.5215 50.0889C68.7819 49.4215 68.9854 48.7298 69.1318 48.0137C69.2783 47.2975 69.3923 46.5814 69.4736 45.8652C69.5713 45.1328 69.6689 44.4574 69.7666 43.8389L71.6465 32.584H91.8613ZM109.571 59.4883C107.765 59.472 106.129 59.1302 104.664 58.4629C103.215 57.7956 101.995 56.8923 101.002 55.7529C99.9928 54.6299 99.2523 53.3034 98.7803 51.7734C98.3083 50.2435 98.1536 48.5833 98.3164 46.793L98.4141 45.792C98.5768 44.3271 98.9186 42.9111 99.4395 41.5439C99.9766 40.1768 100.66 38.9235 101.49 37.7842C102.076 37.0355 102.719 36.3356 103.419 35.6846C104.119 35.0173 104.868 34.4395 105.665 33.9512C106.674 33.349 107.773 32.8851 108.961 32.5596C110.149 32.2178 111.402 32.0632 112.721 32.0957C114.56 32.1445 116.147 32.527 117.481 33.2432C118.816 33.9593 119.898 34.9115 120.729 36.0996C121.542 37.304 122.096 38.6794 122.389 40.2256C122.698 41.7718 122.747 43.3994 122.535 45.1084L122.096 47.9893H104.835C104.802 48.8356 104.908 49.625 105.152 50.3574C105.396 51.0736 105.755 51.7002 106.227 52.2373C106.682 52.7744 107.252 53.2057 107.936 53.5312C108.619 53.8405 109.4 54.0033 110.279 54.0195C111.663 54.0684 112.965 53.8324 114.186 53.3115C115.423 52.7744 116.513 52.0176 117.457 51.041L120.46 54.7275C119.288 56.3551 117.701 57.5596 115.699 58.3408C113.714 59.1221 111.671 59.5046 109.571 59.4883ZM112.232 37.5645C111.354 37.5319 110.564 37.6784 109.864 38.0039C109.164 38.3294 108.546 38.7689 108.009 39.3223C107.455 39.8757 106.975 40.5023 106.568 41.2021C106.161 41.902 105.803 42.61 105.494 43.3262H116.261L116.383 42.7158C116.497 41.9997 116.48 41.3324 116.334 40.7139C116.188 40.0954 115.935 39.5583 115.577 39.1025C115.203 38.6468 114.731 38.2887 114.161 38.0283C113.608 37.7516 112.965 37.597 112.232 37.5645ZM150.963 59H144.322L146.104 48.7461H136.583L134.801 59H128.16L132.75 32.584H139.391L137.535 43.2773H147.057L148.912 32.584H155.553L150.963 59ZM170.064 41.4707L176.144 41.4951C177.446 41.5277 178.699 41.723 179.903 42.0811C181.124 42.4391 182.19 42.9681 183.102 43.668C184.013 44.3678 184.721 45.2549 185.226 46.3291C185.746 47.387 185.966 48.6484 185.885 50.1133C185.787 51.6921 185.364 53.043 184.615 54.166C183.883 55.2891 182.947 56.2087 181.808 56.9248C180.668 57.6572 179.399 58.1943 177.999 58.5361C176.616 58.8617 175.224 59.0163 173.824 59H160.396L164.986 32.584H171.603L170.064 41.4707ZM169.137 46.915L167.965 53.5801L174.093 53.6045C174.662 53.5882 175.232 53.5231 175.802 53.4092C176.371 53.279 176.9 53.0755 177.389 52.7988C177.861 52.5384 178.268 52.1885 178.609 51.749C178.951 51.3096 179.171 50.7725 179.269 50.1377C179.366 49.568 179.342 49.0879 179.195 48.6973C179.049 48.2904 178.821 47.9567 178.512 47.6963C178.186 47.4521 177.796 47.2731 177.34 47.1592C176.884 47.029 176.404 46.9557 175.899 46.9395L169.137 46.915ZM204.498 49.1123H200.47L198.761 59H192.12L196.71 32.584H203.351L201.568 42.6914H204.742L213.409 32.584L222.125 32.6084L210.26 45.5967L217.901 59H209.552L204.498 49.1123ZM240.47 59C240.34 58.5768 240.258 58.1699 240.226 57.7793C240.209 57.3724 240.209 56.9574 240.226 56.5342C239.868 56.8597 239.501 57.1689 239.127 57.4619C238.753 57.7386 238.37 57.9909 237.979 58.2188C237.231 58.6419 236.433 58.9593 235.587 59.1709C234.741 59.3988 233.845 59.5046 232.901 59.4883C231.795 59.472 230.737 59.2848 229.728 58.9268C228.735 58.5524 227.872 58.0316 227.14 57.3643C226.391 56.7132 225.813 55.9157 225.406 54.9717C224.999 54.0277 224.82 52.9697 224.869 51.7979C224.918 50.626 225.138 49.5924 225.528 48.6973C225.935 47.8021 226.464 47.0208 227.115 46.3535C227.766 45.6862 228.515 45.1328 229.361 44.6934C230.208 44.2376 231.111 43.8714 232.071 43.5947C233.032 43.318 234.016 43.1227 235.025 43.0088C236.051 42.8949 237.06 42.8379 238.053 42.8379L241.861 42.8867L242.179 41.251C242.276 40.6162 242.252 40.0465 242.105 39.542C241.975 39.0374 241.747 38.6061 241.422 38.248C241.08 37.9062 240.657 37.6458 240.152 37.4668C239.648 37.2715 239.078 37.1657 238.443 37.1494C237.857 37.1331 237.312 37.1982 236.808 37.3447C236.319 37.4749 235.888 37.6865 235.514 37.9795C235.156 38.2399 234.854 38.5817 234.61 39.0049C234.382 39.4118 234.212 39.8838 234.098 40.4209L227.481 40.4697C227.579 39.0049 227.994 37.7435 228.727 36.6855C229.459 35.6113 230.379 34.7243 231.485 34.0244C232.592 33.3408 233.813 32.8444 235.147 32.5352C236.498 32.2096 237.833 32.055 239.151 32.0713C240.535 32.1038 241.845 32.3236 243.082 32.7305C244.319 33.1374 245.393 33.7233 246.305 34.4883C247.2 35.2695 247.875 36.2298 248.331 37.3691C248.803 38.5085 248.966 39.835 248.819 41.3486L246.988 52.7012C246.842 53.6615 246.728 54.6462 246.646 55.6553C246.581 56.6481 246.72 57.6165 247.062 58.5605L247.037 59H240.47ZM234.635 54.2637C235.302 54.2799 235.953 54.2067 236.588 54.0439C237.223 53.8812 237.817 53.637 238.37 53.3115C238.761 53.0837 239.135 52.8151 239.493 52.5059C239.868 52.1966 240.209 51.8548 240.519 51.4805L241.349 46.915L238.346 46.8906C237.695 46.8906 237.035 46.9476 236.368 47.0615C235.701 47.1755 235.074 47.3545 234.488 47.5986C234.114 47.7939 233.748 48.0137 233.39 48.2578C233.032 48.4857 232.722 48.7705 232.462 49.1123C232.25 49.389 232.071 49.7064 231.925 50.0645C231.778 50.4225 231.673 50.8213 231.607 51.2607C231.542 51.7653 231.575 52.2048 231.705 52.5791C231.835 52.9535 232.039 53.2627 232.315 53.5068C232.592 53.751 232.926 53.9382 233.316 54.0684C233.723 54.1986 234.163 54.2637 234.635 54.2637ZM283.473 32.584L278.883 59H272.242L273.878 49.7471H268.116L261.427 59H254.322L262.062 48.4775C261.638 48.2171 261.248 47.9323 260.89 47.623C260.532 47.2975 260.214 46.9557 259.938 46.5977C259.417 45.8978 259.026 45.1165 258.766 44.2539C258.521 43.3913 258.424 42.488 258.473 41.5439C258.57 39.9814 258.985 38.6387 259.718 37.5156C260.45 36.3763 261.378 35.4404 262.501 34.708C263.624 33.9756 264.877 33.4385 266.261 33.0967C267.644 32.7386 269.036 32.5596 270.436 32.5596L283.473 32.584ZM265.016 41.7393C264.934 42.2601 264.959 42.7158 265.089 43.1064C265.235 43.4808 265.455 43.7982 265.748 44.0586C266.041 44.3353 266.391 44.5469 266.798 44.6934C267.205 44.8398 267.644 44.9212 268.116 44.9375L274.684 44.9619L275.904 38.0283L270.167 38.0039C269.597 38.0202 269.028 38.1097 268.458 38.2725C267.888 38.4352 267.368 38.6631 266.896 38.9561C266.407 39.2653 265.992 39.6559 265.65 40.1279C265.325 40.5837 265.113 41.1208 265.016 41.7393ZM346.423 16.7344H369.431V50.1719H380.876V59H346.423V50.1719H358.454V25.6016H346.423V16.7344ZM357.673 5.91406C357.673 5.08073 357.816 4.3125 358.103 3.60938C358.415 2.88021 358.845 2.25521 359.392 1.73438C359.938 1.23958 360.59 0.848958 361.345 0.5625C362.126 0.276042 362.985 0.132812 363.923 0.132812C365.85 0.132812 367.373 0.679688 368.493 1.77344C369.639 2.84115 370.212 4.22135 370.212 5.91406C370.212 7.60677 369.639 9 368.493 10.0938C367.373 11.1615 365.85 11.6953 363.923 11.6953C362.985 11.6953 362.126 11.5521 361.345 11.2656C360.59 10.9792 359.938 10.5755 359.392 10.0547C358.845 9.5599 358.415 8.96094 358.103 8.25781C357.816 7.52865 357.673 6.7474 357.673 5.91406ZM415.501 6.38281V16.7344H431.282V24.7422H415.501V42.9062C415.501 44.4427 415.67 45.7318 416.009 46.7734C416.373 47.7891 416.881 48.5964 417.532 49.1953C418.183 49.8203 418.965 50.263 419.876 50.5234C420.813 50.7839 421.855 50.9141 423.001 50.9141C423.834 50.9141 424.681 50.875 425.54 50.7969C426.425 50.7188 427.272 50.6146 428.079 50.4844C428.86 50.3802 429.59 50.263 430.267 50.1328C430.97 50.0026 431.569 49.8724 432.063 49.7422L433.118 57.2031C432.363 57.6458 431.478 58.0365 430.462 58.375C429.446 58.6875 428.366 58.9479 427.22 59.1562C426.074 59.3646 424.876 59.5208 423.626 59.625C422.402 59.7552 421.191 59.8203 419.993 59.8203C417.675 59.8203 415.566 59.5208 413.665 58.9219C411.79 58.2969 410.188 57.3333 408.86 56.0312C407.506 54.7552 406.465 53.1276 405.735 51.1484C405.006 49.1432 404.642 46.7474 404.642 43.9609V24.7422H394.993V16.7344H404.642V6.38281H415.501ZM516.587 43.1797H510.22V59H499.36V16.7344H510.22V32.9062H515.845L527.212 16.7344H540.884L525.376 37.0859L542.134 59H527.759L516.587 43.1797ZM550.235 37.4766C550.235 34.4036 550.678 31.5651 551.563 28.9609C552.449 26.3307 553.751 24.0521 555.47 22.125C557.162 20.1979 559.233 18.6875 561.681 17.5938C564.155 16.5 566.98 15.9531 570.157 15.9531C573.334 15.9531 576.16 16.5 578.634 17.5938C581.108 18.6875 583.204 20.1979 584.923 22.125C586.616 24.0521 587.905 26.3307 588.79 28.9609C589.675 31.5651 590.118 34.4036 590.118 37.4766V38.2969C590.118 41.3958 589.675 44.2604 588.79 46.8906C587.905 49.4948 586.616 51.7604 584.923 53.6875C583.23 55.6146 581.147 57.125 578.673 58.2188C576.199 59.2865 573.386 59.8203 570.235 59.8203C567.058 59.8203 564.22 59.2865 561.72 58.2188C559.246 57.125 557.162 55.6146 555.47 53.6875C553.751 51.7604 552.449 49.4948 551.563 46.8906C550.678 44.2604 550.235 41.3958 550.235 38.2969V37.4766ZM561.095 38.2969C561.095 40.0677 561.264 41.7344 561.603 43.2969C561.941 44.8333 562.475 46.1745 563.204 47.3203C563.933 48.4922 564.871 49.4167 566.017 50.0938C567.188 50.7708 568.595 51.1094 570.235 51.1094C571.824 51.1094 573.191 50.7708 574.337 50.0938C575.483 49.4167 576.42 48.4922 577.149 47.3203C577.853 46.1745 578.373 44.8333 578.712 43.2969C579.05 41.7344 579.22 40.0677 579.22 38.2969V37.4766C579.22 35.7578 579.05 34.1302 578.712 32.5938C578.373 31.0573 577.853 29.7031 577.149 28.5312C576.42 27.3594 575.483 26.4349 574.337 25.7578C573.191 25.0807 571.798 24.7422 570.157 24.7422C568.543 24.7422 567.162 25.0807 566.017 25.7578C564.871 26.4349 563.933 27.3594 563.204 28.5312C562.475 29.7031 561.941 31.0573 561.603 32.5938C561.264 34.1302 561.095 35.7578 561.095 37.4766V38.2969ZM622.048 46.0703L627.985 16.7344H641.579V59H631.97V35.4453L625.681 59H618.376L612.282 36.0312V59H602.673V16.7344H616.188L622.048 46.0703ZM692.649 59H681.751V25.5625H665.931V59H655.032V16.7344H692.649V59ZM734.267 59C734.006 58.4792 733.785 57.8802 733.603 57.2031C733.42 56.526 733.264 55.8099 733.134 55.0547C732.535 55.7057 731.845 56.3177 731.063 56.8906C730.282 57.4635 729.423 57.9583 728.485 58.375C727.522 58.8177 726.467 59.1562 725.321 59.3906C724.175 59.651 722.938 59.7812 721.61 59.7812C719.449 59.7812 717.457 59.4688 715.634 58.8438C713.837 58.2188 712.287 57.3464 710.985 56.2266C709.683 55.1068 708.668 53.7786 707.938 52.2422C707.209 50.6797 706.845 48.987 706.845 47.1641C706.845 44.8203 707.3 42.75 708.212 40.9531C709.123 39.1302 710.491 37.6328 712.313 36.4609C713.954 35.3932 715.972 34.5859 718.368 34.0391C720.79 33.4661 723.563 33.1797 726.688 33.1797H732.743V30.6797C732.743 29.6901 732.587 28.8047 732.274 28.0234C731.962 27.2161 731.493 26.526 730.868 25.9531C730.217 25.3542 729.397 24.8984 728.407 24.5859C727.444 24.2474 726.311 24.0781 725.009 24.0781C723.863 24.0781 722.873 24.2214 722.04 24.5078C721.207 24.7682 720.53 25.1458 720.009 25.6406C719.54 26.0833 719.188 26.6172 718.954 27.2422C718.746 27.8672 718.642 28.5573 718.642 29.3125H707.782C707.782 27.5156 708.173 25.8099 708.954 24.1953C709.761 22.5807 710.933 21.1615 712.47 19.9375C713.98 18.7135 715.829 17.75 718.017 17.0469C720.23 16.3177 722.756 15.9531 725.595 15.9531C728.147 15.9531 730.517 16.2656 732.704 16.8906C734.918 17.5156 736.832 18.4401 738.446 19.6641C740.061 20.888 741.324 22.4375 742.235 24.3125C743.147 26.1615 743.603 28.3099 743.603 30.7578V48.8828C743.603 51.1484 743.746 53.0234 744.032 54.5078C744.319 55.9922 744.735 57.2682 745.282 58.3359V59H734.267ZM723.915 51.3828C725.009 51.3828 726.024 51.2526 726.962 50.9922C727.899 50.7318 728.746 50.3932 729.501 49.9766C730.256 49.5599 730.907 49.0911 731.454 48.5703C732.001 48.0234 732.431 47.4766 732.743 46.9297V39.6641H727.196C725.504 39.6641 724.058 39.8333 722.86 40.1719C721.662 40.4844 720.686 40.9271 719.931 41.5C719.175 42.099 718.616 42.8151 718.251 43.6484C717.886 44.4557 717.704 45.3411 717.704 46.3047C717.704 47.0599 717.834 47.763 718.095 48.4141C718.381 49.0391 718.785 49.5729 719.306 50.0156C719.826 50.4323 720.465 50.7708 721.22 51.0312C722.001 51.2656 722.899 51.3828 723.915 51.3828ZM796.704 59H785.806V42.5938H770.024V59H759.126V16.7344H770.024V33.8438H785.806V16.7344H796.704V59ZM837.931 16.7344H848.79V59H837.931V32.0469L822.032 59H811.173V16.7344H822.032V43.6875L837.931 16.7344ZM901.657 16.7344V59H890.798V44.1953H880.954L872.595 59H861.501L870.876 42.3594C868.402 41.2656 866.462 39.7031 865.056 37.6719C863.649 35.6406 862.946 33.3359 862.946 30.7578C862.946 28.7266 863.35 26.8646 864.157 25.1719C864.991 23.4531 866.175 21.9688 867.712 20.7188C869.248 19.4688 871.11 18.4922 873.298 17.7891C875.511 17.0859 878.011 16.7344 880.798 16.7344H901.657ZM873.806 31.0703C873.806 31.7214 873.936 32.3724 874.196 33.0234C874.483 33.6745 874.899 34.2604 875.446 34.7812C875.993 35.3021 876.683 35.7318 877.517 36.0703C878.35 36.3828 879.34 36.5391 880.485 36.5391H890.798V25.4453H880.798C879.6 25.4453 878.558 25.6146 877.673 25.9531C876.813 26.2917 876.097 26.7214 875.524 27.2422C874.951 27.7891 874.522 28.401 874.235 29.0781C873.949 29.7292 873.806 30.3932 873.806 31.0703ZM123.5 209.109C124.568 209.109 125.583 208.953 126.547 208.641C127.51 208.328 128.357 207.885 129.086 207.312C129.815 206.74 130.375 206.049 130.766 205.242C131.182 204.435 131.365 203.536 131.312 202.547H141.547C141.599 204.734 141.143 206.766 140.18 208.641C139.242 210.516 137.953 212.13 136.312 213.484C134.672 214.839 132.758 215.906 130.57 216.688C128.409 217.443 126.117 217.82 123.695 217.82C120.414 217.82 117.536 217.273 115.062 216.18C112.589 215.06 110.531 213.536 108.891 211.609C107.224 209.682 105.961 207.43 105.102 204.852C104.268 202.247 103.852 199.461 103.852 196.492V195.32C103.852 192.352 104.268 189.578 105.102 187C105.935 184.396 107.185 182.13 108.852 180.203C110.518 178.276 112.576 176.753 115.023 175.633C117.497 174.513 120.362 173.953 123.617 173.953C126.221 173.953 128.63 174.344 130.844 175.125C133.057 175.906 134.971 177 136.586 178.406C138.174 179.839 139.411 181.57 140.297 183.602C141.182 185.607 141.599 187.859 141.547 190.359H131.312C131.365 189.318 131.208 188.328 130.844 187.391C130.479 186.453 129.945 185.646 129.242 184.969C128.539 184.292 127.693 183.758 126.703 183.367C125.714 182.951 124.633 182.742 123.461 182.742C121.742 182.742 120.323 183.094 119.203 183.797C118.083 184.5 117.198 185.438 116.547 186.609C115.87 187.781 115.388 189.122 115.102 190.633C114.841 192.143 114.711 193.706 114.711 195.32V196.492C114.711 198.133 114.841 199.721 115.102 201.258C115.362 202.768 115.831 204.096 116.508 205.242C117.159 206.414 118.044 207.352 119.164 208.055C120.31 208.758 121.755 209.109 123.5 209.109ZM243.59 157.117C247.691 157.195 251.207 158.074 254.137 159.754C257.105 161.434 259.508 163.621 261.344 166.316C263.141 169.051 264.391 172.176 265.094 175.691C265.836 179.168 266.031 182.781 265.68 186.531L265.562 187.762C265.094 192.137 263.98 196.199 262.223 199.949C260.465 203.699 258.18 206.941 255.367 209.676C252.555 212.41 249.254 214.539 245.465 216.062C241.676 217.586 237.516 218.309 232.984 218.23C228.414 218.152 224.469 217.195 221.148 215.359C217.828 213.523 215.152 211.102 213.121 208.094C211.051 205.125 209.605 201.707 208.785 197.84C208.004 193.973 207.828 189.93 208.258 185.711L208.434 184.48L208.375 184.363L208.668 182.137C209.137 178.621 209.781 175.086 210.602 171.531C211.461 167.977 212.535 164.539 213.824 161.219C215.074 157.898 216.598 154.754 218.395 151.785C220.191 148.777 222.301 146.062 224.723 143.641C227.145 141.219 229.879 139.148 232.926 137.43C236.012 135.711 239.488 134.461 243.355 133.68C244.684 133.406 246.051 133.133 247.457 132.859C248.902 132.586 250.27 132.176 251.559 131.629C252.809 131.082 253.902 130.359 254.84 129.461C255.777 128.523 256.402 127.293 256.715 125.77H269.664C269.43 129.363 268.629 132.352 267.262 134.734C265.934 137.078 264.195 139.012 262.047 140.535C259.898 142.098 257.418 143.328 254.605 144.227C251.793 145.086 248.805 145.828 245.641 146.453C242.867 147 240.387 147.82 238.199 148.914C236.051 149.969 234.117 151.277 232.398 152.84C230.641 154.441 229.078 156.277 227.711 158.348C226.344 160.418 225.113 162.703 224.02 165.203C226.793 162.664 229.781 160.672 232.984 159.227C236.227 157.742 239.762 157.039 243.59 157.117ZM239.371 170.242C236.949 170.203 234.84 170.633 233.043 171.531C231.246 172.43 229.723 173.641 228.473 175.164C227.184 176.727 226.168 178.523 225.426 180.555C224.684 182.547 224.195 184.617 223.961 186.766L223.844 187.996C223.648 189.949 223.629 191.941 223.785 193.973C223.941 195.965 224.391 197.781 225.133 199.422C225.836 201.062 226.91 202.43 228.355 203.523C229.801 204.578 231.734 205.145 234.156 205.223C236.656 205.301 238.824 204.852 240.66 203.875C242.496 202.859 244.039 201.512 245.289 199.832C246.539 198.191 247.516 196.316 248.219 194.207C248.961 192.098 249.449 189.949 249.684 187.762L249.801 186.531C249.957 184.617 249.938 182.703 249.742 180.789C249.547 178.875 249.078 177.137 248.336 175.574C247.555 174.051 246.441 172.801 244.996 171.824C243.551 170.848 241.676 170.32 239.371 170.242ZM284.043 185.125C284.59 180.672 285.742 176.453 287.5 172.469C289.297 168.445 291.621 164.93 294.473 161.922C297.324 158.914 300.684 156.551 304.551 154.832C308.457 153.113 312.793 152.312 317.559 152.43C320.879 152.469 323.848 152.977 326.465 153.953C329.121 154.93 331.426 156.258 333.379 157.938C334.941 159.344 336.309 160.906 337.48 162.625C338.652 164.305 339.609 166.121 340.352 168.074C341.25 170.535 341.836 173.172 342.109 175.984C342.422 178.758 342.422 181.609 342.109 184.539L341.934 185.828C341.387 190.281 340.215 194.5 338.418 198.484C336.66 202.43 334.355 205.887 331.504 208.855C328.652 211.824 325.273 214.168 321.367 215.887C317.5 217.566 313.203 218.348 308.477 218.23C305.039 218.152 301.895 217.566 299.043 216.473C296.23 215.379 293.965 213.992 292.246 212.312C290.723 210.789 289.434 209.246 288.379 207.684C287.324 206.121 286.426 204.383 285.684 202.469C284.785 200.086 284.18 197.527 283.867 194.793C283.594 192.059 283.613 189.246 283.926 186.355L284.043 185.125ZM299.805 186.355C299.609 188.309 299.531 190.379 299.57 192.566C299.609 194.715 299.961 196.707 300.625 198.543C301.25 200.418 302.266 202 303.672 203.289C305.117 204.539 307.109 205.203 309.648 205.281C312.305 205.359 314.59 204.812 316.504 203.641C318.457 202.43 320.098 200.867 321.426 198.953C322.715 197.078 323.711 194.988 324.414 192.684C325.156 190.34 325.684 188.055 325.996 185.828L326.113 184.598C326.309 182.488 326.367 180.242 326.289 177.859C326.25 175.477 325.762 173.211 324.824 171.062C324.121 169.461 323.086 168.172 321.719 167.195C320.352 166.219 318.574 165.672 316.387 165.555C313.691 165.477 311.367 166.023 309.414 167.195C307.5 168.367 305.898 169.91 304.609 171.824C303.281 173.738 302.227 175.867 301.445 178.211C300.703 180.555 300.195 182.859 299.922 185.125L299.805 186.355ZM421.645 153.602L410.629 217H394.691L403.422 166.844H386.781L384.496 180.613C384.066 183.582 383.52 186.551 382.855 189.52C382.191 192.488 381.352 195.34 380.336 198.074C379.32 200.809 378.09 203.348 376.645 205.691C375.199 207.996 373.461 210.008 371.43 211.727C369.359 213.445 366.938 214.773 364.164 215.711C361.43 216.648 358.285 217.078 354.73 217H351.566L352.914 203.641L354.613 203.699C356.605 203.738 358.305 203.406 359.711 202.703C361.156 201.961 362.367 200.984 363.344 199.773C364.281 198.562 365.043 197.176 365.629 195.613C366.254 194.012 366.742 192.352 367.094 190.633C367.445 188.914 367.719 187.195 367.914 185.477C368.148 183.719 368.383 182.098 368.617 180.613L373.129 153.602H421.645ZM456.473 174.93L471.062 174.988C474.188 175.066 477.195 175.535 480.086 176.395C483.016 177.254 485.574 178.523 487.762 180.203C489.949 181.883 491.648 184.012 492.859 186.59C494.109 189.129 494.637 192.156 494.441 195.672C494.207 199.461 493.191 202.703 491.395 205.398C489.637 208.094 487.391 210.301 484.656 212.02C481.922 213.777 478.875 215.066 475.516 215.887C472.195 216.668 468.855 217.039 465.496 217H433.27L444.285 153.602H460.164L456.473 174.93ZM454.246 187.996L451.434 203.992L466.141 204.051C467.508 204.012 468.875 203.855 470.242 203.582C471.609 203.27 472.879 202.781 474.051 202.117C475.184 201.492 476.16 200.652 476.98 199.598C477.801 198.543 478.328 197.254 478.562 195.73C478.797 194.363 478.738 193.211 478.387 192.273C478.035 191.297 477.488 190.496 476.746 189.871C475.965 189.285 475.027 188.855 473.934 188.582C472.84 188.27 471.688 188.094 470.477 188.055L454.246 187.996ZM533.02 153.602L524.289 203.934H531.73L540.52 153.602H555.461L546.73 203.934H554.172L562.961 153.602H578.371L567.355 217H506.594L517.609 153.602H533.02ZM634.703 153.602H650.992L639.977 217H624.098L631.012 177.508L601.48 217H585.191L596.207 153.602H612.086L605.172 193.094L634.703 153.602ZM692.617 197.371L708.848 153.602H728.887L717.871 217H703.75L709.727 182.898L694.902 217H684.238L681.309 182.078L675.215 217H661.152L672.168 153.602H691.738L692.617 197.371ZM787.562 153.602H803.852L792.836 217H776.957L783.871 177.508L754.34 217H738.051L749.066 153.602H764.945L758.031 193.094L787.562 153.602ZM227.18 323C226.919 322.479 226.698 321.88 226.516 321.203C226.333 320.526 226.177 319.81 226.047 319.055C225.448 319.706 224.758 320.318 223.977 320.891C223.195 321.464 222.336 321.958 221.398 322.375C220.435 322.818 219.38 323.156 218.234 323.391C217.089 323.651 215.852 323.781 214.523 323.781C212.362 323.781 210.37 323.469 208.547 322.844C206.75 322.219 205.201 321.346 203.898 320.227C202.596 319.107 201.581 317.779 200.852 316.242C200.122 314.68 199.758 312.987 199.758 311.164C199.758 308.82 200.214 306.75 201.125 304.953C202.036 303.13 203.404 301.633 205.227 300.461C206.867 299.393 208.885 298.586 211.281 298.039C213.703 297.466 216.477 297.18 219.602 297.18H225.656V294.68C225.656 293.69 225.5 292.805 225.188 292.023C224.875 291.216 224.406 290.526 223.781 289.953C223.13 289.354 222.31 288.898 221.32 288.586C220.357 288.247 219.224 288.078 217.922 288.078C216.776 288.078 215.786 288.221 214.953 288.508C214.12 288.768 213.443 289.146 212.922 289.641C212.453 290.083 212.102 290.617 211.867 291.242C211.659 291.867 211.555 292.557 211.555 293.312H200.695C200.695 291.516 201.086 289.81 201.867 288.195C202.674 286.581 203.846 285.161 205.383 283.938C206.893 282.714 208.742 281.75 210.93 281.047C213.143 280.318 215.669 279.953 218.508 279.953C221.06 279.953 223.43 280.266 225.617 280.891C227.831 281.516 229.745 282.44 231.359 283.664C232.974 284.888 234.237 286.438 235.148 288.312C236.06 290.161 236.516 292.31 236.516 294.758V312.883C236.516 315.148 236.659 317.023 236.945 318.508C237.232 319.992 237.648 321.268 238.195 322.336V323H227.18ZM216.828 315.383C217.922 315.383 218.938 315.253 219.875 314.992C220.812 314.732 221.659 314.393 222.414 313.977C223.169 313.56 223.82 313.091 224.367 312.57C224.914 312.023 225.344 311.477 225.656 310.93V303.664H220.109C218.417 303.664 216.971 303.833 215.773 304.172C214.576 304.484 213.599 304.927 212.844 305.5C212.089 306.099 211.529 306.815 211.164 307.648C210.799 308.456 210.617 309.341 210.617 310.305C210.617 311.06 210.747 311.763 211.008 312.414C211.294 313.039 211.698 313.573 212.219 314.016C212.74 314.432 213.378 314.771 214.133 315.031C214.914 315.266 215.812 315.383 216.828 315.383ZM271.102 310.07L277.039 280.734H290.633V323H281.023V299.445L274.734 323H267.43L261.336 300.031V323H251.727V280.734H265.242L271.102 310.07ZM325.727 283.078C328.565 283.078 331.078 283.586 333.266 284.602C335.479 285.591 337.341 286.958 338.852 288.703C340.362 290.474 341.508 292.557 342.289 294.953C343.07 297.349 343.461 299.953 343.461 302.766V303.586C343.461 306.503 343.018 309.198 342.133 311.672C341.273 314.146 340.01 316.281 338.344 318.078C336.651 319.875 334.568 321.281 332.094 322.297C329.646 323.312 326.846 323.82 323.695 323.82C320.518 323.82 317.693 323.273 315.219 322.18C312.771 321.086 310.701 319.576 309.008 317.648C307.315 315.721 306.026 313.443 305.141 310.812C304.281 308.156 303.852 305.266 303.852 302.141V299.758C303.852 297.336 303.956 295.07 304.164 292.961C304.398 290.826 304.724 288.846 305.141 287.023C305.583 285.018 306.13 283.169 306.781 281.477C307.458 279.784 308.24 278.26 309.125 276.906C310.766 274.302 312.758 272.232 315.102 270.695C317.445 269.159 320.062 268.078 322.953 267.453C324.359 267.167 325.57 266.88 326.586 266.594C327.602 266.307 328.448 265.969 329.125 265.578C329.776 265.188 330.258 264.719 330.57 264.172C330.883 263.625 331.039 262.961 331.039 262.18H339.828C339.828 264.341 339.542 266.177 338.969 267.688C338.422 269.198 337.549 270.474 336.352 271.516C335.128 272.583 333.578 273.469 331.703 274.172C329.828 274.875 327.562 275.487 324.906 276.008C323.318 276.346 321.859 276.828 320.531 277.453C319.229 278.052 318.07 278.846 317.055 279.836C316.039 280.826 315.18 282.023 314.477 283.43C313.773 284.836 313.24 286.503 312.875 288.43C313.708 287.596 314.581 286.867 315.492 286.242C316.404 285.591 317.354 285.044 318.344 284.602C319.438 284.107 320.596 283.729 321.82 283.469C323.07 283.208 324.372 283.078 325.727 283.078ZM323.617 291.867C322.003 291.867 320.622 292.167 319.477 292.766C318.357 293.339 317.445 294.12 316.742 295.109C316.039 296.125 315.531 297.297 315.219 298.625C314.906 299.927 314.75 301.307 314.75 302.766V303.586C314.75 305.174 314.906 306.672 315.219 308.078C315.531 309.484 316.039 310.708 316.742 311.75C317.445 312.792 318.37 313.612 319.516 314.211C320.661 314.81 322.055 315.109 323.695 315.109C325.31 315.109 326.677 314.81 327.797 314.211C328.943 313.612 329.867 312.792 330.57 311.75C331.273 310.708 331.781 309.484 332.094 308.078C332.432 306.672 332.602 305.174 332.602 303.586V302.766C332.602 301.307 332.432 299.927 332.094 298.625C331.781 297.297 331.273 296.125 330.57 295.109C329.867 294.12 328.943 293.339 327.797 292.766C326.651 292.167 325.258 291.867 323.617 291.867ZM382.891 280.734H393.75V323H382.891V296.047L366.992 323H356.133V280.734H366.992V307.688L382.891 280.734ZM408.18 280.734H419.078V314.289H433.727V280.734H444.625V314.328H450.797L450.016 335.539H439.977V323H408.18V280.734ZM486.984 280.734H497.844V323H486.984V296.047L471.086 323H460.227V280.734H471.086V307.688L486.984 280.734ZM550.711 280.734V323H539.852V308.195H530.008L521.648 323H510.555L519.93 306.359C517.456 305.266 515.516 303.703 514.109 301.672C512.703 299.641 512 297.336 512 294.758C512 292.727 512.404 290.865 513.211 289.172C514.044 287.453 515.229 285.969 516.766 284.719C518.302 283.469 520.164 282.492 522.352 281.789C524.565 281.086 527.065 280.734 529.852 280.734H550.711ZM522.859 295.07C522.859 295.721 522.99 296.372 523.25 297.023C523.536 297.674 523.953 298.26 524.5 298.781C525.047 299.302 525.737 299.732 526.57 300.07C527.404 300.383 528.393 300.539 529.539 300.539H539.852V289.445H529.852C528.654 289.445 527.612 289.615 526.727 289.953C525.867 290.292 525.151 290.721 524.578 291.242C524.005 291.789 523.576 292.401 523.289 293.078C523.003 293.729 522.859 294.393 522.859 295.07ZM583.383 310.07L589.32 280.734H602.914V323H593.305V299.445L587.016 323H579.711L573.617 300.031V323H564.008V280.734H577.523L583.383 310.07ZM643.125 280.734H653.984V323H643.125V296.047L627.227 323H616.367V280.734H627.227V307.688L643.125 280.734ZM692.633 303.117H682.75L682.125 266.125H693.258L692.633 303.117ZM681.344 317.688C681.344 315.969 681.904 314.536 683.023 313.391C684.143 312.245 685.693 311.672 687.672 311.672C689.599 311.672 691.135 312.245 692.281 313.391C693.427 314.536 694 315.969 694 317.688C694 319.354 693.427 320.76 692.281 321.906C691.135 323.026 689.599 323.586 687.672 323.586C685.693 323.586 684.143 323.026 683.023 321.906C681.904 320.76 681.344 319.354 681.344 317.688Z" fill="#212121"/>
</svg>
